<svg width="16" height="16" viewBox="0 0 16 16" fill="none" xmlns="http://www.w3.org/2000/svg">
<path d="M12 10.5H13V13H12V10.5ZM10 8H11V13H10V8ZM5.5 13C4.8372 12.9992 4.20178 12.7356 3.73311 12.2669C3.26444 11.7982 3.00079 11.1628 3 10.5H4C4 10.7967 4.08797 11.0867 4.2528 11.3334C4.41762 11.58 4.65189 11.7723 4.92597 11.8858C5.20006 11.9994 5.50166 12.0291 5.79264 11.9712C6.08361 11.9133 6.35088 11.7704 6.56066 11.5607C6.77044 11.3509 6.9133 11.0836 6.97118 10.7926C7.02906 10.5017 6.99935 10.2001 6.88582 9.92597C6.77229 9.65189 6.58003 9.41762 6.33336 9.2528C6.08668 9.08797 5.79667 9 5.5 9V8C6.16304 8 6.79893 8.26339 7.26777 8.73223C7.73661 9.20107 8 9.83696 8 10.5C8 11.163 7.73661 11.7989 7.26777 12.2678C6.79893 12.7366 6.16304 13 5.5 13Z" fill="black"/>
<path d="M14 1H2C1.73478 1 1.48043 1.10536 1.29289 1.29289C1.10536 1.48043 1 1.73478 1 2V14C1 14.2652 1.10536 14.5196 1.29289 14.7071C1.48043 14.8946 1.73478 15 2 15H14C14.2651 14.9996 14.5192 14.8941 14.7067 14.7067C14.8941 14.5192 14.9996 14.2651 15 14V2C15 1.73478 14.8946 1.48043 14.7071 1.29289C14.5196 1.10536 14.2652 1 14 1ZM14 5.5H7V2H14V5.5ZM6 2V5.5H2V2H6ZM2 14V6.5H14L14.001 14H2Z" fill="black"/>
</svg>
