<svg viewBox="0 0 38 38" fill="none" xmlns="http://www.w3.org/2000/svg" xmlns:xlink="http://www.w3.org/1999/xlink" x="0" y="0"><defs><clipPath id="clip1_94_29">
<rect width="38" height="38" fill="white" transform="translate(0, 0.00009999999997489795)"/>
</clipPath></defs><g id="devicon:google" clip-path="url(#clip1_94_29)">
<path id="Vector_2" d="M13.238,1.2501c-3.797,1.317 -7.071,3.817 -9.342,7.132c-2.271,3.316 -3.419,7.272 -3.275,11.289c0.143,4.016 1.571,7.88 4.074,11.025c2.502,3.144 5.947,5.404 9.828,6.446c3.147,0.812 6.444,0.847 9.607,0.104c2.87,-0.644 5.52,-2.021 7.69,-3.996c2.26,-2.119 3.9,-4.814 4.75,-7.796c0.92,-3.243 1.08,-6.653 0.48,-9.969h-17.673v7.33h10.233c-0.2,1.169 -0.64,2.284 -1.29,3.28c-0.64,0.996 -1.48,1.851 -2.468,2.515c-1.25,0.826 -2.658,1.382 -4.136,1.632c-1.481,0.276 -3.001,0.276 -4.482,0c-1.502,-0.31 -2.923,-0.93 -4.171,-1.819c-2.007,-1.421 -3.513,-3.438 -4.305,-5.766c-0.805,-2.371 -0.805,-4.941 0,-7.312c0.563,-1.662 1.495,-3.175 2.725,-4.426c1.408,-1.459 3.19,-2.501 5.151,-3.013c1.962,-0.512 4.026,-0.474 5.967,0.109c1.516,0.466 2.903,1.279 4.049,2.375c1.15,-1.148 2.31,-2.298 3.46,-3.452c0.59,-0.621 1.24,-1.211 1.82,-1.847c-1.75,-1.628 -3.8,-2.895 -6.042,-3.729c-4.08,-1.481 -8.545,-1.521 -12.65,-0.112z" fill="white"/>
<path id="Vector_3" d="M13.238,1.2501c4.105,-1.41 8.569,-1.371 12.65,0.11c2.242,0.839 4.292,2.112 6.042,3.746c-0.59,0.636 -1.22,1.229 -1.83,1.847c-1.15,1.15 -2.3,2.296 -3.45,3.438c-1.146,-1.097 -2.533,-1.91 -4.049,-2.375c-1.94,-0.586 -4.005,-0.626 -5.966,-0.116c-1.962,0.51 -3.746,1.55 -5.155,3.007c-1.23,1.252 -2.162,2.765 -2.725,4.427l-6.154,-4.765c2.202,-4.369 6.017,-7.71 10.637,-9.319z" fill="#E33629"/>
<path id="Vector_4" d="M0.968,15.2891c0.331,-1.639 0.88,-3.227 1.633,-4.72l6.154,4.776c-0.805,2.371 -0.805,4.942 0,7.313c-2.051,1.583 -4.102,3.174 -6.154,4.773c-1.885,-3.751 -2.46,-8.026 -1.633,-12.142z" fill="#F8BD00"/>
<path id="Vector_5" d="M19.377,15.4821h17.673c0.6,3.316 0.44,6.726 -0.48,9.969c-0.85,2.982 -2.49,5.677 -4.75,7.796c-1.99,-1.55 -3.98,-3.088 -5.968,-4.637c0.988,-0.665 1.828,-1.521 2.468,-2.517c0.65,-0.997 1.09,-2.114 1.29,-3.284h-10.233c-0.003,-2.441 0,-4.884 0,-7.327z" fill="#587DBD"/>
<path id="Vector_6" d="M2.598,27.4311c2.052,-1.583 4.103,-3.174 6.154,-4.774c0.793,2.328 2.302,4.346 4.31,5.766c1.253,0.885 2.677,1.5 4.181,1.805c1.481,0.275 3.001,0.275 4.482,0c1.478,-0.25 2.886,-0.807 4.136,-1.633c1.989,1.55 3.979,3.087 5.969,4.637c-2.18,1.976 -4.83,3.354 -7.691,3.999c-3.164,0.744 -6.46,0.708 -9.607,-0.104c-2.489,-0.664 -4.813,-1.836 -6.828,-3.441c-2.133,-1.693 -3.874,-3.827 -5.106,-6.255z" fill="#319F43"/>
</g></svg>