<svg width="16" height="16" viewBox="0 0 16 16" fill="none" xmlns="http://www.w3.org/2000/svg">
<path d="M3.5 3.5H5V5H11V3.5H12.5V9H13.5V3.5C13.4992 3.23503 13.3936 2.98113 13.2062 2.79377C13.0189 2.6064 12.765 2.50079 12.5 2.5H11V2C10.9992 1.73503 10.8936 1.48113 10.7062 1.29377C10.5189 1.1064 10.265 1.00079 10 1H6C5.73503 1.00079 5.48113 1.1064 5.29377 1.29377C5.1064 1.48113 5.00079 1.73503 5 2V2.5H3.5C3.23503 2.50079 2.98113 2.6064 2.79377 2.79377C2.6064 2.98113 2.50079 3.23503 2.5 3.5V14C2.50079 14.265 2.6064 14.5189 2.79377 14.7062C2.98113 14.8936 3.23503 14.9992 3.5 15H8V14H3.5V3.5ZM6 2H10V4H6V2ZM15 12H10.914L12.207 10.707L11.5 10L9 12.5L11.5 15L12.207 14.293L10.914 13H15V12ZM6 6.5H5V7.5H6V6.5ZM11 6.5H7V7.5H11V6.5ZM6 9H5V10H6V9ZM5 12.5H6V11.5H5V12.5ZM7 10H9V9H7V10Z" fill="black"/>
</svg>
