<svg width="26" height="26" viewBox="0 0 26 26" fill="none" xmlns="http://www.w3.org/2000/svg">
<path d="M23.8477 9.51122L5.64263 0.408664C4.92417 0.0510758 4.11291 -0.0762281 3.31945 0.0441092C2.52599 0.164446 1.78895 0.526568 1.20882 1.0811C0.628693 1.63564 0.233706 2.3556 0.0777145 3.14282C-0.0782773 3.93005 0.0123173 4.74623 0.337147 5.48009L3.45802 12.463C3.52883 12.6319 3.56531 12.8131 3.56531 12.9962C3.56531 13.1793 3.52883 13.3605 3.45802 13.5293L0.337147 20.5123C0.0727827 21.1062 -0.0389764 21.7567 0.0120257 22.4048C0.0630278 23.0529 0.275174 23.6779 0.629185 24.2232C0.983196 24.7684 1.46785 25.2165 2.03909 25.5268C2.61034 25.8371 3.25007 25.9997 3.90015 25.9998C4.50902 25.9938 5.10882 25.8516 5.65564 25.5837L23.8607 16.4812C24.5065 16.1563 25.0493 15.6584 25.4286 15.0431C25.8079 14.4277 26.0087 13.7191 26.0087 12.9962C26.0087 12.2733 25.8079 11.5647 25.4286 10.9493C25.0493 10.334 24.5065 9.83607 23.8607 9.51122H23.8477ZM22.6904 14.1535L4.48531 23.2561C4.24625 23.3709 3.97782 23.4098 3.716 23.3677C3.45417 23.3256 3.21148 23.2045 3.02047 23.0205C2.82945 22.8366 2.69923 22.5986 2.64728 22.3386C2.59533 22.0785 2.62413 21.8088 2.72982 21.5656L5.83769 14.5826C5.87792 14.4894 5.91266 14.3939 5.94172 14.2966H14.9012C15.2461 14.2966 15.5769 14.1596 15.8207 13.9157C16.0646 13.6718 16.2016 13.3411 16.2016 12.9962C16.2016 12.6513 16.0646 12.3206 15.8207 12.0767C15.5769 11.8328 15.2461 11.6958 14.9012 11.6958H5.94172C5.91266 11.5985 5.87792 11.503 5.83769 11.4097L2.72982 4.42679C2.62413 4.18357 2.59533 3.91386 2.64728 3.65381C2.69923 3.39377 2.82945 3.15582 3.02047 2.97187C3.21148 2.78793 3.45417 2.66679 3.716 2.62468C3.97782 2.58258 4.24625 2.62153 4.48531 2.73632L22.6904 11.8389C22.9034 11.948 23.0822 12.1138 23.207 12.318C23.3318 12.5222 23.3979 12.7569 23.3979 12.9962C23.3979 13.2355 23.3318 13.4702 23.207 13.6744C23.0822 13.8786 22.9034 14.0444 22.6904 14.1535Z" fill="black"/>
</svg>
