<svg width="25" height="27" viewBox="0 0 25 27" fill="none" xmlns="http://www.w3.org/2000/svg">
<path fill-rule="evenodd" clip-rule="evenodd" d="M2.70991 9.78729C2.70991 7.19154 3.74107 4.70211 5.57654 2.86663C7.41201 1.03116 9.90145 0 12.4972 0C15.093 0 17.5824 1.03116 19.4179 2.86663C21.2533 4.70211 22.2845 7.19154 22.2845 9.78729V15.0501L24.832 20.145C24.9493 20.3796 25.0046 20.6401 24.9929 20.9021C24.9811 21.164 24.9025 21.4186 24.7647 21.6416C24.6268 21.8646 24.4342 22.0487 24.2052 22.1763C23.9762 22.304 23.7184 22.371 23.4562 22.371H17.9138C17.6028 23.5709 16.9021 24.6337 15.9217 25.3923C14.9414 26.151 13.7368 26.5626 12.4972 26.5626C11.2576 26.5626 10.053 26.151 9.07268 25.3923C8.09232 24.6337 7.39164 23.5709 7.08064 22.371H1.53823C1.27604 22.371 1.01819 22.304 0.789177 22.1763C0.560162 22.0487 0.367584 21.8646 0.229733 21.6416C0.0918818 21.4186 0.0133355 21.164 0.00155379 20.9021C-0.0102279 20.6401 0.0451463 20.3796 0.162417 20.145L2.70991 15.0501V9.78729ZM10.0755 22.371C10.321 22.796 10.674 23.149 11.0991 23.3944C11.5242 23.6398 12.0064 23.769 12.4972 23.769C12.988 23.769 13.4702 23.6398 13.8953 23.3944C14.3204 23.149 14.6734 22.796 14.9189 22.371H10.0755ZM12.4972 2.79637C10.6431 2.79637 8.86493 3.53291 7.55387 4.84396C6.24282 6.15502 5.50628 7.93319 5.50628 9.78729V15.0501C5.50625 15.484 5.40525 15.9119 5.21126 16.3L3.57539 19.5746H21.4204L19.7845 16.3C19.5901 15.912 19.4886 15.4841 19.4881 15.0501V9.78729C19.4881 7.93319 18.7516 6.15502 17.4405 4.84396C16.1295 3.53291 14.3513 2.79637 12.4972 2.79637Z" fill="black"/>
</svg>
