<svg width="28" height="28" viewBox="0 0 28 28" fill="none" xmlns="http://www.w3.org/2000/svg">
<path fill-rule="evenodd" clip-rule="evenodd" d="M13.75 0C6.15625 0 0 6.15625 0 13.75C0 21.3438 6.15625 27.5 13.75 27.5C21.3438 27.5 27.5 21.3438 27.5 13.75C27.5 6.15625 21.3438 0 13.75 0ZM2.5 13.75C2.5 16.3625 3.39125 18.7675 4.885 20.6775C5.9343 19.3002 7.28769 18.1839 8.83955 17.4159C10.3914 16.6479 12.0997 16.2489 13.8312 16.25C15.5405 16.248 17.2276 16.6364 18.7639 17.3855C20.3002 18.1346 21.6452 19.2246 22.6962 20.5725C23.7793 19.152 24.5085 17.494 24.8236 15.7357C25.1387 13.9775 25.0305 12.1694 24.5081 10.4612C23.9857 8.75304 23.064 7.19381 21.8194 5.91255C20.5747 4.63128 19.0428 3.66482 17.3505 3.09314C15.6581 2.52145 13.854 2.36096 12.0873 2.62497C10.3207 2.88897 8.64224 3.56986 7.19096 4.61132C5.73968 5.65277 4.55726 7.02484 3.74154 8.61399C2.92581 10.2032 2.50023 11.9637 2.5 13.75ZM13.75 25C11.1674 25.0042 8.66268 24.1157 6.66 22.485C7.46601 21.3308 8.53899 20.3884 9.78759 19.7381C11.0362 19.0878 12.4234 18.7488 13.8312 18.75C15.2215 18.7488 16.5919 19.0793 17.8287 19.7141C19.0655 20.349 20.133 21.2697 20.9425 22.4C18.9243 24.0838 16.3783 25.0041 13.75 25Z" fill="black"/>
</svg>
